<svg width="562" height="442" viewBox="0 0 562 442" fill="none" xmlns="http://www.w3.org/2000/svg">
<path d="M112.676 441.458C174.905 441.458 225.352 391.011 225.352 328.782C225.352 266.553 174.905 216.106 112.676 216.106C50.4467 216.106 0 266.553 0 328.782C0 391.011 50.4467 441.458 112.676 441.458Z" fill="#FFB78A"/>
<path d="M481.907 357.261C526.141 357.261 562 321.402 562 277.167C562 232.933 526.141 197.073 481.907 197.073C437.672 197.073 401.813 232.933 401.813 277.167C401.813 321.402 437.672 357.261 481.907 357.261Z" fill="#FFEFE6"/>
<path d="M105.884 144.149C130.619 144.149 150.671 124.097 150.671 99.3613C150.671 74.6258 130.619 54.5737 105.884 54.5737C81.148 54.5737 61.0959 74.6258 61.0959 99.3613C61.0959 124.097 81.148 144.149 105.884 144.149Z" fill="#FFCFB0"/>
<path d="M293.654 430.838L177.116 400.773C100.022 380.879 53.6484 302.302 73.5426 225.208L103.608 108.671C123.502 31.5767 202.079 -14.797 279.173 5.09715L395.71 35.1624C472.804 55.0565 519.177 133.633 499.283 210.727L469.218 327.264C449.358 404.324 370.747 450.732 293.654 430.838Z" fill="#FF9654"/>
</svg>
